<?xml version="1.0" standalone="no"?>
<!DOCTYPE svg PUBLIC "-//W3C//DTD SVG 20010904//EN"
 "http://www.w3.org/TR/2001/REC-SVG-20010904/DTD/svg10.dtd">
<svg version="1.0" xmlns="http://www.w3.org/2000/svg"
 width="564.000000pt" height="566.000000pt" viewBox="0 0 564.000000 566.000000"
 preserveAspectRatio="xMidYMid meet">
<metadata>
Created by potrace 1.16, written by Peter Selinger 2001-2019
</metadata>
<g transform="translate(0.000000,566.000000) scale(0.100000,-0.100000)"
fill="#4f46e5" stroke="none">
<path d="M2615 5530 c-467 -35 -893 -182 -1290 -445 -146 -97 -165 -111 -249
-184 -329 -284 -563 -598 -739 -991 -71 -157 -140 -383 -178 -580 -54 -277
-54 -687 0 -1000 57 -326 213 -707 413 -1004 112 -168 180 -250 342 -411 223
-222 420 -365 696 -501 85 -43 165 -81 178 -86 12 -4 32 -12 45 -18 121 -53
357 -117 547 -149 337 -56 792 -38 1096 44 30 8 80 22 112 30 57 16 177 57
220 75 12 6 32 14 45 19 194 77 412 203 607 350 210 157 495 463 625 670 109
173 206 363 260 508 19 54 40 107 44 118 22 51 70 249 111 460 5 28 14 129 20
226 12 185 2 440 -22 569 -29 162 -88 410 -107 455 -5 11 -26 65 -46 120 -82
219 -242 505 -385 685 -103 131 -251 286 -385 402 -168 146 -478 342 -652 411
-23 9 -61 25 -85 36 -24 10 -59 24 -78 31 -19 7 -44 16 -55 20 -33 14 -195 61
-265 77 -276 62 -551 83 -825 63z m-1251 -1706 c14 -5 16 -38 16 -260 l0 -254
360 0 360 0 0 250 c0 227 2 250 18 258 42 22 42 27 42 -539 l0 -540 -27 3 -28
3 -3 258 -2 257 -360 0 -360 0 -2 -257 -3 -258 -27 -3 -28 -3 0 540 c0 422 3
540 13 544 6 3 13 6 14 6 1 1 8 -2 17 -5z m1462 -2 c5 -4 32 -63 58 -132 26
-69 51 -134 56 -145 10 -22 77 -198 121 -320 16 -44 34 -89 39 -100 22 -47
140 -363 140 -374 0 -8 -12 -11 -32 -9 -29 3 -35 9 -51 53 -10 28 -24 64 -31
80 -8 17 -28 71 -46 120 -18 50 -37 96 -43 103 -7 9 -67 12 -236 12 -124 0
-230 -4 -236 -8 -5 -4 -18 -29 -29 -57 -120 -325 -108 -300 -144 -303 -22 -2
-32 1 -32 11 0 7 22 72 50 143 27 71 59 154 71 184 11 30 25 64 29 75 5 11 23
58 40 105 17 47 42 112 55 145 13 33 49 128 80 210 77 203 78 204 95 209 25 6
34 6 46 -2z m1034 -25 c60 -26 98 -60 139 -122 24 -36 26 -49 26 -140 0 -77
-4 -108 -18 -132 -27 -50 -82 -100 -143 -131 l-56 -28 42 -29 c79 -54 183
-218 219 -345 24 -85 30 -114 25 -122 -8 -13 -54 -9 -58 5 -21 79 -53 172 -72
212 -44 90 -120 183 -186 225 l-61 40 -109 0 -108 0 0 -232 c0 -128 -4 -239
-9 -246 -4 -8 -19 -12 -32 -10 l-24 3 -3 529 c-2 411 1 532 10 544 11 13 40
14 188 9 157 -4 181 -7 230 -30z m494 27 c14 -6 16 -63 16 -546 l0 -539 -27 3
-28 3 -3 529 c-2 560 -2 567 42 550z m-2769 -1293 c132 -61 160 -220 55 -315
l-40 -36 28 -14 c114 -59 138 -233 45 -321 -58 -54 -112 -66 -271 -56 l-113 6
0 370 c0 204 1 373 1 378 0 4 57 7 128 7 102 0 135 -4 167 -19z m580 -13 c8
-18 44 -112 80 -208 37 -96 70 -184 75 -195 5 -11 21 -51 35 -90 15 -38 40
-105 57 -148 31 -80 30 -101 -7 -87 -14 5 -33 43 -64 129 l-45 121 -167 0
-168 0 -48 -125 c-40 -105 -51 -125 -69 -125 -28 0 -35 9 -24 29 5 9 26 59 45
111 65 171 147 385 155 405 5 11 23 58 40 105 18 47 37 91 42 98 19 23 48 13
63 -20z m457 -330 l3 -363 173 -3 c144 -2 172 -5 172 -17 0 -13 -30 -15 -200
-15 l-200 0 0 373 c0 206 3 377 7 380 3 4 15 7 25 7 17 0 18 -20 20 -362z
m771 232 c27 -69 59 -152 72 -185 39 -98 152 -398 160 -422 5 -20 3 -23 -18
-23 -26 0 -24 -3 -106 207 l-16 43 -166 0 -167 0 -22 -57 c-12 -32 -26 -67
-30 -78 -5 -11 -16 -41 -25 -67 -11 -29 -24 -48 -37 -51 -24 -7 -34 17 -20 46
6 12 31 78 57 147 26 69 51 134 55 145 5 11 39 99 75 195 36 96 71 188 77 203
9 22 16 27 37 25 23 -3 31 -16 74 -128z m647 -176 c0 -204 -4 -320 -12 -346
-13 -45 -64 -98 -110 -114 -51 -19 -137 -16 -185 5 -42 19 -69 53 -58 71 9 15
21 12 61 -15 30 -20 49 -25 101 -25 60 0 66 2 106 39 l42 40 3 313 c1 172 4
319 7 326 2 6 14 12 25 12 20 0 20 -5 20 -306z m258 -77 l2 -377 -25 0 -25 0
0 373 c0 206 3 377 7 381 4 4 14 5 23 4 13 -3 15 -49 18 -381z"/>
<path d="M2751 3608 c-23 -62 -46 -122 -51 -133 -5 -11 -20 -51 -35 -90 -14
-38 -30 -79 -35 -90 -18 -43 -40 -106 -40 -115 0 -6 80 -10 210 -10 116 0 210
2 210 5 0 9 -70 196 -89 240 -10 22 -24 58 -31 80 -7 22 -18 54 -25 70 -7 17
-24 58 -37 93 -12 34 -26 62 -29 62 -3 0 -25 -51 -48 -112z"/>
<path d="M3500 3531 l0 -241 121 0 c151 0 215 17 275 72 51 47 68 91 66 176
-1 97 -39 159 -127 205 -34 19 -61 22 -187 25 l-148 4 0 -241z"/>
<path d="M1340 2356 l0 -156 93 0 c151 1 217 46 217 150 0 61 -18 100 -61 131
-27 19 -48 23 -141 27 l-108 5 0 -157z"/>
<path d="M1347 2153 c-4 -3 -7 -80 -7 -171 l0 -165 110 5 c95 5 115 9 154 32
25 15 53 40 61 56 21 41 19 113 -5 160 -31 61 -81 82 -205 86 -56 2 -105 1
-108 -3z"/>
<path d="M2123 2459 c-6 -8 -22 -45 -36 -84 -25 -68 -88 -232 -102 -267 -7
-17 4 -18 139 -18 86 0 146 4 146 10 0 5 -4 19 -9 32 -33 80 -115 297 -120
317 -5 19 -9 21 -18 10z"/>
<path d="M3285 2392 c-15 -42 -31 -81 -35 -87 -3 -5 -13 -30 -20 -55 -7 -25
-17 -49 -20 -55 -4 -5 -14 -31 -23 -57 l-16 -48 145 0 c79 0 144 4 144 9 0 4
-16 51 -35 102 -20 52 -50 131 -66 176 -17 46 -34 85 -38 87 -4 3 -20 -30 -36
-72z"/>
</g>
</svg>
